<?xml version="1.0" encoding="UTF-8" standalone="no"?>
<!DOCTYPE svg PUBLIC "-//W3C//DTD SVG 1.1//EN" "http://www.w3.org/Graphics/SVG/1.1/DTD/svg11.dtd">
<svg width="100%" height="100%" viewBox="0 0 1000 1000" version="1.1" xmlns="http://www.w3.org/2000/svg"
     xml:space="preserve"
     style="fill-rule:evenodd;clip-rule:evenodd;stroke-linejoin:round;stroke-miterlimit:2;">
    <path d="M1000,199.56C1000,89.42 910.58,0 800.44,0L199.56,0C89.42,0 0,89.42 0,199.56L0,800.44C0,910.58 89.42,1000 199.56,1000L800.44,1000C910.58,1000 1000,910.58 1000,800.44L1000,199.56Z"
          style="fill:rgb(244,15,89);"/>
    <g id="heart-fill" transform="matrix(38.3577,0,0,38.3577,500,538.119)">
        <g transform="matrix(1,0,0,1,-8,-8)">
            <clipPath id="_clip1">
                <rect x="0" y="0" width="16" height="16"/>
            </clipPath>
            <g clip-path="url(#_clip1)">
                <path d="M8,1.314C12.438,-3.248 23.534,4.735 8,15C-7.534,4.736 3.562,-3.248 8,1.314Z"
                      style="fill:white;"/>
            </g>
        </g>
    </g>
</svg>
