<?xml version="1.0" encoding="UTF-8" standalone="no"?>
<!DOCTYPE svg PUBLIC "-//W3C//DTD SVG 1.1//EN" "http://www.w3.org/Graphics/SVG/1.1/DTD/svg11.dtd">
<svg width="100%" height="100%" viewBox="0 0 1000 1000" version="1.1" xmlns="http://www.w3.org/2000/svg"
     xml:space="preserve"
     style="fill-rule:evenodd;clip-rule:evenodd;stroke-linejoin:round;stroke-miterlimit:2;">
    <path d="M1000,199.56C1000,89.42 910.58,0 800.44,0L199.56,0C89.42,0 0,89.42 0,199.56L0,800.44C0,910.58 89.42,1000 199.56,1000L800.44,1000C910.58,1000 1000,910.58 1000,800.44L1000,199.56ZM967.01,199.56L967.01,800.44C967.01,892.372 892.372,967.01 800.44,967.01L199.56,967.01C107.628,967.01 32.99,892.372 32.99,800.44L32.99,199.56C32.99,107.628 107.628,32.99 199.56,32.99L800.44,32.99C892.372,32.99 967.01,107.628 967.01,199.56Z"
          style="fill:white;"/>
    <g id="heart" transform="matrix(38.3577,0,0,38.3577,500,538.119)">
        <g transform="matrix(1,0,0,1,-8,-8)">
            <clipPath id="_clip1">
                <rect x="0" y="0" width="16" height="16"/>
            </clipPath>
            <g clip-path="url(#_clip1)">
                <path d="M8,2.748L7.283,2.011C5.6,0.281 2.514,0.878 1.4,3.053C0.877,4.076 0.759,5.553 1.714,7.438C2.634,9.253 4.548,11.427 8,13.795C11.452,11.427 13.365,9.253 14.286,7.438C15.241,5.552 15.124,4.076 14.6,3.053C13.486,0.878 10.4,0.28 8.717,2.01L8,2.748ZM8,15C-7.333,4.868 3.279,-3.04 7.824,1.143C7.884,1.198 7.943,1.255 8,1.314C8.056,1.255 8.115,1.198 8.176,1.144C12.72,-3.042 23.333,4.867 8,15Z"
                      style="fill:white;fill-rule:nonzero;"/>
            </g>
        </g>
    </g>
</svg>
