<?xml version="1.0" encoding="UTF-8" standalone="no"?>
<!DOCTYPE svg PUBLIC "-//W3C//DTD SVG 1.1//EN" "http://www.w3.org/Graphics/SVG/1.1/DTD/svg11.dtd">
<svg width="100%" height="100%" viewBox="0 0 1000 1000" version="1.1" xmlns="http://www.w3.org/2000/svg" xmlns:xlink="http://www.w3.org/1999/xlink" xml:space="preserve" xmlns:serif="http://www.serif.com/" style="fill-rule:evenodd;clip-rule:evenodd;stroke-linecap:round;stroke-linejoin:round;stroke-miterlimit:1.5;">
    <path d="M1000,199.56C1000,89.42 910.58,0 800.44,0L199.56,0C89.42,0 0,89.42 0,199.56L0,800.44C0,910.58 89.42,1000 199.56,1000L800.44,1000C910.58,1000 1000,910.58 1000,800.44L1000,199.56Z" style="fill:none;stroke:rgb(51,51,51);stroke-width:40.83px;"/>
    <g transform="matrix(0.984108,0,0,0.984108,-107.526,73.4506)">
        <circle cx="529.86" cy="524.142" r="259.848" style="fill:none;stroke:rgb(50,50,50);stroke-width:70.63px;"/>
    </g>
    <path d="M205.677,440.885L474.587,141.042L454.257,333.545L743.964,68.615L632.147,426.938L818.933,333.545L634.689,717.916" style="fill:none;stroke:rgb(51,51,51);stroke-width:69.5px;"/>
    <g transform="matrix(1.44736,0.597129,-0.499754,1.21133,-47.6807,-294.518)">
        <path d="M414.867,216.01L452.986,308.767L376.747,308.767L414.867,216.01Z" style="fill:rgb(51,51,51);"/>
    </g>
    <g transform="matrix(0.997908,1.20648,-1.00973,0.835176,554.639,-277.106)">
        <path d="M414.867,216.01L452.986,308.767L376.747,308.767L414.867,216.01Z" style="fill:rgb(51,51,51);"/>
    </g>
    <g transform="matrix(1.77842,1.23924,-1.4195,2.03711,253.494,-786.523)">
        <path d="M414.867,216.01L452.986,308.767L376.747,308.767L414.867,216.01Z" style="fill:rgb(51,51,51);"/>
    </g>
</svg>
